<svg xmlns="http://www.w3.org/2000/svg" xmlns:xlink="http://www.w3.org/1999/xlink" viewBox="0 0 623.676 383.323">
  <defs>
    <style>
      .cls-1 {
        opacity: 0.42;
      }

      .cls-2 {
        fill: rgba(64,102,234,0.18);
      }

      .cls-3 {
        fill: rgba(0,30,135,0.5);
      }

      .cls-4 {
        fill: #6885ef;
      }

      .cls-5 {
        fill: #293354;
      }

      .cls-6 {
        fill: #ffc7ec;
      }

      .cls-7 {
        fill: #f4a0d7;
      }

      .cls-8 {
        fill: #d84aa8;
      }

      .cls-9 {
        fill: rgba(104,133,239,0.5);
      }

      .cls-10 {
        fill: rgba(216,74,168,0.6);
      }

      .cls-11 {
        fill: #001e87;
      }

      .cls-12 {
        fill: #ffc6ec;
      }

      .cls-13 {
        fill: #4066ea;
      }

      .cls-14 {
        fill: url(#linear-gradient);
      }

      .cls-15 {
        fill: #b2c3ff;
      }

      .cls-16 {
        fill: url(#linear-gradient-2);
      }

      .cls-17 {
        fill: url(#linear-gradient-3);
      }

      .cls-18 {
        fill: #9cb0f4;
      }
    </style>
    <linearGradient id="linear-gradient" x1="0.553" y1="-19.949" x2="0.415" y2="-20.549" gradientUnits="objectBoundingBox">
      <stop offset="0" stop-color="#001e87" stop-opacity="0.502"/>
      <stop offset="1" stop-color="#001e87" stop-opacity="0"/>
    </linearGradient>
    <linearGradient id="linear-gradient-2" x1="0.495" y1="3.772" x2="0.513" y2="3.457" gradientUnits="objectBoundingBox">
      <stop offset="0" stop-color="#0039ff" stop-opacity="0"/>
      <stop offset="1" stop-color="#0039ff"/>
    </linearGradient>
    <linearGradient id="linear-gradient-3" x1="0.931" y1="0.819" x2="0.354" y2="0.638" gradientUnits="objectBoundingBox">
      <stop offset="0" stop-color="#fff"/>
      <stop offset="1" stop-color="#fff" stop-opacity="0"/>
    </linearGradient>
  </defs>
  <g id="Open-Account" class="cls-1" transform="translate(0 0.023)">
    <path id="Path_1" data-name="Path 1" class="cls-2" d="M154,97.8c-4.9,76.8,55.7,74.5,106.6,91.1,88.7,29,84.5,172.3,153.8,162.6,51.3-7.2,105.2-104,91.6-187.3C494.2,91.7,447.3,45.5,368,16,283.6-15.4,159.2,15.2,154,97.8Z"/>
    <path id="Path_2" data-name="Path 2" class="cls-3" d="M204.5,332.4c10.8,18.4-8.5,25.2-11.5,27,30.5-11,49.5-27,39.5-49.5s-34.9-36.5-78-58c-36.3-18.1-43-65.7-41.2-87.1.1-1.2-2.7-2.4-3.3-1.3-27,43.4-27.4,103.4,16,128.9C172,319.4,193.7,314,204.5,332.4Z"/>
    <path id="Path_3" data-name="Path 3" class="cls-4" d="M277.3,288.4c20.4-18,44.4-15.9,56.2-16.1-1.3,5.8-4,9.8-11,18.6s-18.5,17.3-33,17.1c7.9,19.8-25.7,44.2-28.9,46.8a.215.215,0,0,1-.2.2c-.2.1-.1,0,.2-.2C262.2,351.3,252.6,310.3,277.3,288.4Z"/>
    <path id="Path_4" data-name="Path 4" class="cls-5" d="M341,362.9c0,9.2-44.8,16.6-100.1,16.6-14.5,0-28.2-.5-40.7-1.4-17.6,3.2-41.7,5.2-68.4,5.2-23.1,0-44.3-1.5-61-4-6.1.6-12.7.9-19.7.9C22.9,380.2,0,375,0,368.6c0-5.9,19.6-10.8,44.8-11.5,16.1-5.9,49-9.9,87-9.9a474.884,474.884,0,0,1,48.7,2.4,500.262,500.262,0,0,1,60.4-3.4C296.2,346.3,341,353.7,341,362.9Z"/>
    <g id="Group_1" data-name="Group 1">
      <ellipse id="Ellipse_1" data-name="Ellipse 1" class="cls-6" cx="20.5" cy="49" rx="20.5" ry="49" transform="translate(112.183 298.475) rotate(-47.221)"/>
    </g>
    <g id="Group_2" data-name="Group 2">
      <ellipse id="Ellipse_2" data-name="Ellipse 2" class="cls-7" cx="20.5" cy="49" rx="20.5" ry="49" transform="translate(147.198 268.966) rotate(-19.227)"/>
    </g>
    <g id="Group_3" data-name="Group 3">
      <ellipse id="Ellipse_3" data-name="Ellipse 3" class="cls-8" cx="17.8" cy="42.5" rx="17.8" ry="42.5" transform="translate(108.849 347.352) rotate(-77.778)"/>
    </g>
    <path id="Path_5" data-name="Path 5" class="cls-5" d="M500.6,370.5c22-19.7-28.9-15.8-54.8-15.8S355,351.3,355,363s27.1,1.7,59.4,7.5C465.2,379.7,474.6,393.9,500.6,370.5Z"/>
    <path id="Path_6" data-name="Path 6" class="cls-9" d="M445.5,352.4c-5.5,5.4-6.9,8.4-7,10.6-.1,1-1.1,1.7-1.8.9-12.7-13.9-10-28.1,2.3-42.7,13-15.5,18.2-13.2,51.2-31s41.7-52.9,39.1-62.6c26.9,38.3,16.9,79.9-18.9,99.3C474.7,346.3,454.7,343.4,445.5,352.4Z"/>
    <path id="Path_7" data-name="Path 7" class="cls-10" d="M419.4,349.5a4.372,4.372,0,0,0,.6,1,8.794,8.794,0,0,0-.6-1c-3.2-6.5-5.7-39.1,12.1-55.5,19-17.6,54.3-28.3,112.5-42.5,54.2-13.3,92.1-43.1,75.9-93.6-.4-1.2-1.8-.7-1.6.5,6.5,32.2,1.7,66.1-71.8,84.6-82.7,20.8-110.4,21.5-129.5,44C398.2,309.1,404.8,327.9,419.4,349.5Z"/>
    <path id="Path_8" data-name="Path 8" class="cls-11" d="M542.8,178.5a46.062,46.062,0,0,1-3.1,21.9,95.045,95.045,0,0,0-3.1-22.2,40.918,40.918,0,0,0-16.9,4.2l-1.8.9c3.5,6.8,6.1,14.6,5.8,22.9a102.389,102.389,0,0,0-11.1-19.7,88.525,88.525,0,0,0-16.9,14.2,44.546,44.546,0,0,1,10.6,17A95.975,95.975,0,0,0,492,205c-6.2,7.9-10.7,16.8-11.2,25.9a15.147,15.147,0,0,1,12.6,26.5c7.4,5.5,17,7.5,26.7,7.4a76.073,76.073,0,0,0,0-19.1c4,5.6,5.5,12.3,5.9,18.7a91.458,91.458,0,0,0,20.8-4.6,75.357,75.357,0,0,0-8-20.7c7.1,4.5,11.5,11.5,14.2,18.3,1-.4,1.9-.9,2.8-1.3a41.472,41.472,0,0,0,13.6-10.8,76.967,76.967,0,0,0-17.2-17c8.7,1.6,15.7,6.2,21.1,11.3a41.2,41.2,0,0,0,3.5-32.8c-3.5,1.7-13.6,2.5-16.2,2.4,1.3-2.5,8.2-9.6,11.8-11.4.1,0,.1-.1.2-.1A40.9,40.9,0,0,0,542.8,178.5Z"/>
    <path id="Path_9" data-name="Path 9" class="cls-11" d="M423,284.5c17.6-30.5,57.3-44.3,73.9-50.2l1.1,2.2c-16.7,4.9-55.4,22.2-71,52.7-13.5,26.4-9.5,52.8-4.3,67.6a3.086,3.086,0,0,1-1.5,3.8,2.84,2.84,0,0,1-4-1.6C411.8,343.6,406.6,313,423,284.5Z"/>
    <path id="Path_10" data-name="Path 10" class="cls-12" d="M175,362.3v-13h7l-2.2,13Z"/>
    <path id="Path_11" data-name="Path 11" class="cls-12" d="M209,369.4v-13h6.5l-2,13Z"/>
    <path id="Path_12" data-name="Path 12" class="cls-13" d="M180,301.9c.4-10.4-3.5-60.5-3.5-66.5,4.5,1,11.4,1.5,21,1.5a127.252,127.252,0,0,0,20-1.5c2.5,17.5,5,56.7,5,61.5s-4.3,46.5-6.5,60.4h-7.5c.2-10.7.4-52.2,0-55.4s-7.3-28.2-11-36c-1,4.8-3.5,30.8-3.5,36s-7.7,36.2-11.5,51H175C174.8,340.3,179.6,312.3,180,301.9Z"/>
    <path id="Path_13" data-name="Path 13" class="cls-14" d="M183,263.4l14.5,2a7.749,7.749,0,0,1-7.5,5.5C185.2,270.9,183.3,265.9,183,263.4Z"/>
    <path id="Path_14" data-name="Path 14" class="cls-12" d="M175,145.1a10.08,10.08,0,0,1,4.5-5c3.5-2,10-2.5,11.5,0,1,1.7,1,3.5-1.5,5-2.3,1.4-10.6,3.6-11.1,4.8.2.3.3.5.1.2a.31.31,0,0,1-.1-.2C177.9,149,176.1,146.6,175,145.1Z"/>
    <path id="Path_15" data-name="Path 15" class="cls-12" d="M248,252.6a10.022,10.022,0,0,0,4.3,5.1c3.4,2,9.6,2.5,11.1,0,1-1.7,1-3.6-1.4-5.1-2.2-1.4-10.2-3.7-10.6-4.8.2-.3.3-.5.1-.3a.367.367,0,0,0-.1.3C250.7,248.7,249,251.1,248,252.6Z"/>
    <path id="Path_16" data-name="Path 16" class="cls-12" d="M189,167.4v9.5a12.381,12.381,0,0,0,6.5,1.5c4,0,5.7-1,6.5-1.5l-1.5-4.5c.3-.3,1.6-1,4-1s4-7.7,4.5-10.5c-.5-.8-1.5-1.6-1.5-6,0-11-5.5-16-13-16s-9,12-9,14.5S189,163.4,189,167.4Z"/>
    <path id="Path_17" data-name="Path 17" class="cls-8" d="M196,169.9c-2.4.8-6.7.3-8.5,0-1.5,0-1.4-4.8-2-8a69.539,69.539,0,0,1-1.5-12c0-3,1.5-13.5,12-13.5,8.4,0,11.8,7.3,12.5,11,0,2.3-.8,7.1-4,7.5s-5,3.5-5.5,5C199,162.9,198.4,169.1,196,169.9Z"/>
    <path id="Path_18" data-name="Path 18" class="cls-11" d="M145,173.4c0,12.5,20.3,21,31,30.5v34c2.5,10.5,10.6,11.5,21,11.5s19-11,21.5-11.5c-1-8.2-3.8-30.7-3-29.5,1,1.5,7,18.3,14.5,28a97.919,97.919,0,0,0,17.5,17l5-5s-14.8-18.6-18-25.5c-6-13-8.8-25.9-12-33.5s-15.3-12.2-20-13c0,0-7.5,3-13.5,0-9.8,1.8-19.2-4.1-28-7,1-4.5,19.5-19.5,19.5-19.5l-4.5-6.5S145,161.9,145,173.4Z"/>
    <path id="Path_19" data-name="Path 19" class="cls-15" d="M180.5,359.9H175c-.5,2.3-1.5,7.2-1.5,8,0,1,1.5,3.5,10.5,3.5s11-2,11-3.5-2-3-5.5-3C186.7,364.9,182.3,361.6,180.5,359.9Z"/>
    <path id="Path_20" data-name="Path 20" class="cls-15" d="M213.5,366.4h-4c-.7,2.5-1.9,7.8-1.5,9,.5,1.5,6.5,2,9,2s10,0,10-2-3-3.5-5.5-3.5C219.5,371.9,215.3,368.3,213.5,366.4Z"/>
    <path id="Path_21" data-name="Path 21" class="cls-11" d="M242.1,140.1c6.9-3.3,41-11.6,54.8-12.6,13.9-1.1,15,39.9,0,41.5-8,.9-38.2,7-47.8,9.7s-17.4-5.8-18.7-15.2C228.2,148.3,236,143,242.1,140.1Z"/>
    <path id="Path_22" data-name="Path 22" class="cls-13" d="M463.8,30c-12,2.3-123.7,27.3-185.1,40.7a9.965,9.965,0,0,0-7.8,9.8V228a10.029,10.029,0,0,0,12.1,9.8l183.6-40.2a10.047,10.047,0,0,0,7.9-9.7L475,35.4C475,32.2,475,27.8,463.8,30Z"/>
    <path id="Path_23" data-name="Path 23" class="cls-16" d="M457.5,39.3c-11,2.8-114.4,25.3-171.5,38.1a9.937,9.937,0,0,0-7.8,9.7v20.2c16.6-1.1,31.6,4.7,44.4,1.9,57.7-12.9,144.8-30,144.8-30V44.5C467.4,41.4,469,36.4,457.5,39.3Z"/>
    <path id="Path_24" data-name="Path 24" class="cls-17" d="M272.5.4C354-4.1,475,28.8,475,28.8V185.1S359.5,314,266,329.9c-74.3,12.6-127-54-127-170.6S180.1,5.5,272.5.4Z"/>
    <path id="Path_25" data-name="Path 25" class="cls-4" d="M349.6,246.5V99.1a9.749,9.749,0,0,1,5.4-8.8c17-8.7,70.8-35.7,114.3-52.7,5.6-2.2,6.2-2.7,6.2-2.7,0,4.3.4,130.6.5,160.4a9.926,9.926,0,0,1-5.7,9L363.9,255.5A9.962,9.962,0,0,1,349.6,246.5Z"/>
    <path id="Path_26" data-name="Path 26" class="cls-18" d="M410.6,125.3l-27.2,13.1a9.942,9.942,0,0,0-5.6,9V171a9.976,9.976,0,0,0,14.3,9l27.2-12.9a10.036,10.036,0,0,0,5.7-9V134.3A10.053,10.053,0,0,0,410.6,125.3Z"/>
    <ellipse id="Ellipse_4" data-name="Ellipse 4" class="cls-11" cx="15.1" cy="10.8" rx="15.1" ry="10.8" transform="matrix(0.119, -0.993, 0.993, 0.119, 388.622, 166.779)"/>
  </g>
</svg>
